<?xml version="1.0" encoding="UTF-8"?><svg id="Full_color_logo" xmlns="http://www.w3.org/2000/svg" viewBox="0 0 748.31 180.69"><defs><style>.cls-1{fill:#000;}.cls-1,.cls-2{stroke-width:0px;}.cls-2{fill:#2f5ef5;}</style></defs><path class="cls-1" d="M257.22,92.95h11.73v26.59c-3.43,2.74-7.44,4.84-12.01,6.29-4.57,1.47-9.28,2.19-14.11,2.19-6.8,0-12.93-1.48-18.4-4.44-5.46-2.95-9.75-7.04-12.86-12.24-3.12-5.21-4.68-11.09-4.68-17.64s1.56-12.42,4.68-17.64c3.11-5.21,7.41-9.29,12.91-12.24,5.5-2.96,11.68-4.44,18.54-4.44,5.59,0,10.67.92,15.25,2.77,4.57,1.84,8.42,4.55,11.53,8.1l-7.82,7.63c-5.08-5.08-11.21-7.63-18.39-7.63-4.7,0-8.88.98-12.54,2.96-3.65,1.97-6.51,4.73-8.58,8.29-2.06,3.56-3.1,7.63-3.1,12.2s1.03,8.45,3.1,12.01c2.06,3.56,4.92,6.36,8.58,8.39,3.66,2.03,7.8,3.05,12.44,3.05,5.21,0,9.78-1.14,13.72-3.43v-20.78Z"/><path class="cls-1" d="M342.77,116.69v10.39h-50.05V60.35h48.71v10.39h-36.32v17.35h32.22v10.2h-32.22v18.4h37.65Z"/><path class="cls-1" d="M425.67,60.35v66.72h-10.2l-36.79-45.18v45.18h-12.3V60.35h10.2l36.79,45.18v-45.18h12.3Z"/><path class="cls-1" d="M506.19,116.59v10.48h-56.9v-8.29l39.27-47.95h-38.61v-10.48h55v8.3l-39.27,47.94h40.51Z"/><path class="cls-1" d="M579.65,116.69v10.39h-50.04V60.35h48.7v10.39h-36.32v17.35h32.22v10.2h-32.22v18.4h37.65Z"/><path class="cls-2" d="M666.92,75.18c-3.27-5.47-7.83-9.8-13.54-12.89-5.7-3.09-12.17-4.65-19.24-4.65s-13.54,1.56-19.23,4.65c-5.72,3.08-10.28,7.44-13.54,12.94-3.26,5.5-4.92,11.72-4.92,18.49s1.66,13,4.92,18.49c3.27,5.5,7.83,9.86,13.54,12.94,5.7,3.09,12.17,4.65,19.23,4.65s13.54-1.56,19.24-4.65c5.72-3.09,10.27-7.42,13.54-12.89,3.26-5.48,4.92-11.71,4.92-18.54s-1.66-13.06-4.92-18.54ZM645.28,112.63c-6.52,3.67-15.72,3.68-22.29,0-3.26-1.84-5.86-4.44-7.72-7.72-1.88-3.31-2.83-7.07-2.83-11.19s.95-7.88,2.83-11.19c1.86-3.28,4.45-5.88,7.71-7.72,3.29-1.84,7.04-2.78,11.15-2.78s7.87.94,11.15,2.78c3.25,1.83,5.85,4.43,7.72,7.72,1.87,3.31,2.82,7.08,2.82,11.19s-.95,7.88-2.82,11.19c-1.87,3.29-4.46,5.89-7.72,7.72h0Z"/><path class="cls-1" d="M748.31,60.35v66.72h-10.2l-36.79-45.18v45.18h-12.3V60.35h10.2l36.79,45.18v-45.18h12.3Z"/><path class="cls-2" d="M40.94,86.34l14.2,4.96c-.06.74-.12,1.49-.12,2.23,0,6.7,2.92,12.65,7.57,16.75l-13.96,26.55c-1.74-.43-3.54-.68-5.4-.68-12.28,0-22.27,9.99-22.27,22.27,0,12.28,9.99,22.27,22.27,22.27,12.28,0,22.27-9.99,22.27-22.27,0-6.7-2.92-12.65-7.57-16.75l13.96-26.55c1.74.43,3.54.68,5.4.68,3.35,0,6.45-.74,9.3-2.05l11.48,14.51c-2.92,3.78-4.71,8.56-4.71,13.71,0,12.28,9.99,22.27,22.27,22.27,12.28,0,22.27-9.99,22.27-22.27,0-12.28-9.99-22.27-22.27-22.27-3.35,0-6.45.74-9.3,2.05l-11.48-14.51c2.92-3.78,4.71-8.5,4.71-13.65l28.47-6.89c3.66,7.2,11.17,12.1,19.79,12.1,12.28,0,22.27-9.99,22.27-22.27,0-12.28-9.99-22.27-22.27-22.27-12.28,0-22.27,9.99-22.27,22.27l-28.47,6.89c-2.92-5.71-8.19-9.92-14.51-11.48v-28.04c9.74-2.36,17-11.17,17-21.65,0-12.28-9.99-22.27-22.27-22.27-12.28,0-22.27,9.99-22.27,22.27,0,10.48,7.26,19.29,17,21.65v28.1c-5.58,1.36-10.36,4.84-13.4,9.49l-14.2-4.96c.06-.74.12-1.49.12-2.23,0-12.28-9.99-22.27-22.27-22.27-12.28,0-22.27,9.99-22.27,22.27s9.99,22.27,22.27,22.27c7.82,0,14.7-4.03,18.67-10.23ZM43.23,146.82c6.45,0,11.72,5.27,11.72,11.72,0,6.45-5.27,11.72-11.72,11.72-6.45,0-11.72-5.27-11.72-11.72,0-6.51,5.27-11.72,11.72-11.72ZM77.35,33.99c-6.45,0-11.72-5.27-11.72-11.72,0-6.45,5.27-11.72,11.72-11.72,6.45,0,11.72,5.27,11.72,11.72,0,6.45-5.27,11.72-11.72,11.72ZM136.22,76.61c0-6.45,5.27-11.72,11.72-11.72,6.45,0,11.72,5.27,11.72,11.72,0,6.45-5.27,11.72-11.72,11.72-6.51,0-11.72-5.27-11.72-11.72ZM103.96,142.11c0-6.45,5.27-11.72,11.72-11.72,6.45,0,11.72,5.27,11.72,11.72,0,6.45-5.27,11.72-11.72,11.72-6.51,0-11.72-5.27-11.72-11.72ZM77.35,105.33c-6.45,0-11.72-5.27-11.72-11.72,0-6.45,5.27-11.72,11.72-11.72,6.45,0,11.72,5.27,11.72,11.72,0,6.51-5.27,11.72-11.72,11.72ZM33.99,74.25c0,6.45-5.27,11.72-11.72,11.72-6.45,0-11.72-5.27-11.72-11.72,0-6.45,5.27-11.72,11.72-11.72,6.51,0,11.72,5.27,11.72,11.72Z"/></svg>
