<?xml version="1.0" encoding="UTF-8"?><svg id="Outlined" xmlns="http://www.w3.org/2000/svg" viewBox="0 0 500 150"><defs><style>.cls-1{fill:#5a03ee;}.cls-1,.cls-2,.cls-3,.cls-4,.cls-5{stroke-width:0px;}.cls-1,.cls-3,.cls-5{fill-rule:evenodd;}.cls-2,.cls-3{fill:#008aed;}.cls-4{fill:#424242;}.cls-5{fill:#004bee;}</style></defs><path class="cls-1" d="m147.98,82.65c-2.05-1.91-3.34-4.63-3.34-7.65s1.29-5.74,3.34-7.65c.55-.52,1.17-.97,1.82-1.35,2.05-1.91,3.34-4.63,3.34-7.65,0-5.76-4.68-10.44-10.45-10.44s-10.45,4.67-10.45,10.44c0,3.02,1.29,5.74,3.34,7.65.66.38,1.27.84,1.82,1.35,2.06,1.91,3.34,4.63,3.34,7.65s-1.29,5.75-3.34,7.65c-.55.52-1.16.97-1.82,1.35-2.06,1.91-3.34,4.63-3.34,7.65,0,5.76,4.68,10.44,10.45,10.44s10.45-4.67,10.45-10.44c0-3.02-1.29-5.74-3.34-7.65-.66-.38-1.27-.84-1.82-1.35"/><path class="cls-5" d="m105.95,35.15c2.06,1.91,3.34,4.63,3.34,7.65s-1.29,5.74-3.34,7.65c-.55.51-1.17.97-1.82,1.35-2.05,1.91-3.34,4.63-3.34,7.65,0,5.76,4.68,10.44,10.45,10.44s10.45-4.67,10.45-10.44c0-3.02-1.29-5.74-3.34-7.65-.66-.39-1.27-.84-1.82-1.35-2.06-1.91-3.34-4.63-3.34-7.65s1.29-5.74,3.34-7.65c.55-.51,1.16-.97,1.82-1.35,2.06-1.91,3.34-4.63,3.34-7.65,0-5.76-4.68-10.44-10.45-10.44s-10.45,4.67-10.45,10.44c0,3.02,1.29,5.74,3.34,7.65.66.39,1.27.84,1.82,1.35Z"/><path class="cls-1" d="m85.07,82.65c-2.05-1.91-3.34-4.63-3.34-7.65s1.29-5.74,3.34-7.65c.56-.52,1.17-.97,1.82-1.35,2.05-1.91,3.34-4.63,3.34-7.65,0-5.76-4.68-10.44-10.45-10.44s-10.45,4.67-10.45,10.44c0,3.02,1.29,5.74,3.34,7.65.66.38,1.27.84,1.82,1.35,2.06,1.91,3.34,4.63,3.34,7.65s-1.29,5.75-3.34,7.65c-.55.52-1.17.97-1.82,1.35-2.06,1.91-3.34,4.63-3.34,7.65,0,5.76,4.68,10.44,10.45,10.44s10.45-4.67,10.45-10.44c0-3.02-1.29-5.74-3.34-7.65-.66-.38-1.27-.84-1.82-1.35Z"/><path class="cls-5" d="m116.53,114.85c-2.06-1.91-3.34-4.63-3.34-7.65s1.29-5.74,3.34-7.65c.55-.51,1.16-.97,1.82-1.35,2.05-1.91,3.34-4.63,3.34-7.65,0-5.76-4.68-10.44-10.45-10.44s-10.45,4.67-10.45,10.44c0,3.02,1.29,5.74,3.34,7.65.66.38,1.27.84,1.82,1.35,2.06,1.91,3.34,4.63,3.34,7.65s-1.29,5.74-3.34,7.65c-.55.51-1.17.97-1.82,1.35-2.06,1.91-3.34,4.63-3.34,7.65,0,5.76,4.68,10.44,10.45,10.44s10.45-4.67,10.45-10.44c0-3.02-1.29-5.74-3.34-7.65-.66-.38-1.27-.84-1.82-1.35Z"/><path class="cls-3" d="m48.77,64.56c5.77,0,10.45,4.67,10.45,10.44s-4.68,10.44-10.45,10.44-10.45-4.67-10.45-10.44,4.68-10.44,10.45-10.44"/><path class="cls-3" d="m173.71,64.56c5.77,0,10.45,4.67,10.45,10.44s-4.68,10.44-10.45,10.44-10.45-4.67-10.45-10.44,4.68-10.44,10.45-10.44"/><path class="cls-4" d="m260.06,103.92h-10.74v-18.71h-15.91v18.71h-10.8v-44.81h10.8v17.79h15.91v-17.79h10.74v44.81Z"/><path class="cls-4" d="m278.41,103.92h-10.77v-44.81h10.77v44.81Z"/><path class="cls-4" d="m296.71,88.71v15.2h-10.8v-44.81h17.88c3.43,0,6.46.63,9.09,1.89,2.64,1.26,4.68,3.06,6.12,5.39,1.45,2.33,2.17,4.97,2.17,7.92,0,4.37-1.56,7.86-4.69,10.48-3.13,2.62-7.42,3.92-12.88,3.92h-6.89Zm0-8.34h7.08c2.09,0,3.69-.52,4.79-1.57,1.1-1.05,1.65-2.52,1.65-4.43,0-2.09-.56-3.76-1.69-5.02-1.13-1.25-2.67-1.89-4.62-1.91h-7.2v12.92Z"/><path class="cls-2" d="m379.86,82.96c0,4.39-.74,8.22-2.22,11.49-1.48,3.27-3.57,5.77-6.28,7.49-2.71,1.72-5.87,2.58-9.48,2.58s-6.66-.87-9.39-2.6c-2.73-1.73-4.85-4.21-6.35-7.42-1.51-3.21-2.28-6.93-2.32-11.16v-3.23c0-4.31.75-8.11,2.25-11.42,1.5-3.3,3.62-5.83,6.35-7.58,2.74-1.75,5.87-2.63,9.4-2.63s6.75.87,9.49,2.6c2.74,1.73,4.85,4.25,6.32,7.54,1.48,3.29,2.22,7.12,2.22,11.49v2.83Zm-5.88-2.89c0-5.31-1.07-9.39-3.2-12.23-2.13-2.84-5.12-4.26-8.96-4.26s-6.67,1.42-8.82,4.26c-2.14,2.84-3.25,6.79-3.31,11.83v3.29c0,5.15,1.08,9.2,3.25,12.14,2.16,2.94,5.14,4.42,8.94,4.42s6.77-1.39,8.86-4.17c2.09-2.78,3.17-6.76,3.23-11.96v-3.32Z"/><path class="cls-2" d="m393.21,70.62l.18,4.19c2.54-3.2,5.87-4.8,9.97-4.8,7.04,0,10.59,3.97,10.65,11.91v22h-5.69v-22.03c-.02-2.4-.57-4.17-1.65-5.32-1.08-1.15-2.75-1.72-5.03-1.72-1.85,0-3.47.49-4.86,1.48-1.4.98-2.48,2.28-3.26,3.88v23.73h-5.69v-33.3h5.38Z"/><path class="cls-2" d="m436.42,104.53c-4.51,0-8.19-1.48-11.02-4.45s-4.25-6.93-4.25-11.89v-1.05c0-3.3.63-6.25,1.89-8.85,1.26-2.59,3.03-4.63,5.29-6.09,2.27-1.47,4.72-2.2,7.37-2.2,4.33,0,7.69,1.43,10.09,4.28s3.6,6.93,3.6,12.25v2.37h-22.56c.08,3.28,1.04,5.93,2.88,7.96,1.84,2.02,4.17,3.03,7,3.03,2.01,0,3.71-.41,5.11-1.23,1.39-.82,2.62-1.91,3.66-3.26l3.48,2.71c-2.79,4.29-6.97,6.43-12.55,6.43Zm-.71-29.85c-2.3,0-4.23.84-5.79,2.51-1.56,1.67-2.52,4.02-2.89,7.03h16.68v-.43c-.16-2.89-.94-5.13-2.34-6.72-1.4-1.59-3.28-2.38-5.66-2.38Z"/></svg>
